<svg width="14" height="13" viewBox="0 0 14 13" fill="none" xmlns="http://www.w3.org/2000/svg">
<path d="M6.69389 1.69132C6.79637 1.37592 7.24258 1.37592 7.34506 1.69133L8.246 4.46414C8.42571 5.01722 8.94111 5.39168 9.52264 5.39168H12.4382C12.7698 5.39168 12.9077 5.81605 12.6394 6.01098L10.2807 7.72467C9.81021 8.06649 9.61334 8.67238 9.79305 9.22546L10.694 11.9983C10.7965 12.3137 10.4355 12.576 10.1672 12.381L7.80848 10.6673C7.33801 10.3255 6.70094 10.3255 6.23046 10.6673L3.87177 12.381C3.60347 12.5759 3.24248 12.3137 3.34496 11.9983L4.2459 9.22546C4.42561 8.67238 4.22874 8.06649 3.75827 7.72467L1.39957 6.01098C1.13127 5.81605 1.26916 5.39168 1.60079 5.39168H4.5163C5.09784 5.39168 5.61324 5.01722 5.79294 4.46414L6.69389 1.69132Z" stroke="#FFC107"/>
</svg>
