<svg width="19" height="19" viewBox="0 0 19 19" fill="none" xmlns="http://www.w3.org/2000/svg">
<path d="M18.618 5.324C18.6079 4.56662 18.4661 3.81678 18.199 3.108C17.9673 2.51015 17.6135 1.9672 17.1601 1.51383C16.7068 1.06046 16.1638 0.706651 15.566 0.475C14.8663 0.212357 14.1271 0.0703413 13.38 0.0550001C12.418 0.0120001 12.113 0 9.67097 0C7.22897 0 6.91597 6.70552e-08 5.96097 0.0550001C5.21413 0.0704541 4.47532 0.212468 3.77597 0.475C3.17803 0.706489 2.63499 1.06024 2.1816 1.51363C1.72821 1.96702 1.37446 2.51006 1.14297 3.108C0.8798 3.80713 0.738092 4.54611 0.723969 5.293C0.680969 6.256 0.667969 6.561 0.667969 9.003C0.667969 11.445 0.667969 11.757 0.723969 12.713C0.738969 13.461 0.879969 14.199 1.14297 14.9C1.37485 15.4978 1.72886 16.0406 2.1824 16.4938C2.63594 16.947 3.17903 17.3006 3.77697 17.532C4.4744 17.8052 5.21334 17.9574 5.96197 17.982C6.92497 18.025 7.22997 18.038 9.67197 18.038C12.114 18.038 12.427 18.038 13.382 17.982C14.1291 17.9673 14.8683 17.8256 15.568 17.563C16.1657 17.3311 16.7085 16.9772 17.1618 16.5238C17.6151 16.0705 17.9691 15.5277 18.201 14.93C18.464 14.23 18.605 13.492 18.62 12.743C18.663 11.781 18.676 11.476 18.676 9.033C18.674 6.591 18.674 6.281 18.618 5.324ZM9.66497 13.621C7.11097 13.621 5.04197 11.552 5.04197 8.998C5.04197 6.444 7.11097 4.375 9.66497 4.375C10.8911 4.375 12.0669 4.86207 12.9339 5.72905C13.8009 6.59603 14.288 7.7719 14.288 8.998C14.288 10.2241 13.8009 11.4 12.9339 12.267C12.0669 13.1339 10.8911 13.621 9.66497 13.621ZM14.472 5.282C14.3304 5.28213 14.1901 5.25434 14.0593 5.20021C13.9284 5.14608 13.8095 5.06668 13.7094 4.96655C13.6093 4.86643 13.5299 4.74754 13.4758 4.61669C13.4216 4.48584 13.3938 4.3456 13.394 4.204C13.394 4.0625 13.4218 3.92239 13.476 3.79166C13.5301 3.66093 13.6095 3.54215 13.7096 3.44209C13.8096 3.34204 13.9284 3.26267 14.0591 3.20852C14.1899 3.15437 14.33 3.1265 14.4715 3.1265C14.613 3.1265 14.7531 3.15437 14.8838 3.20852C15.0145 3.26267 15.1333 3.34204 15.2334 3.44209C15.3334 3.54215 15.4128 3.66093 15.4669 3.79166C15.5211 3.92239 15.549 4.0625 15.549 4.204C15.549 4.8 15.067 5.282 14.472 5.282Z" fill="#1D1B19"/>
</svg>
