<svg width="132" height="37" viewBox="0 0 132 37" fill="none" xmlns="http://www.w3.org/2000/svg">
<path d="M19.125 1.875V36H10.8984V1.875H19.125ZM29.3906 1.875V8.22656H0.867188V1.875H29.3906Z" fill="#FF5300"/>
<path d="M41.6484 30.5859L46.6406 10.6406H54.9609L46.6641 36H41.7422L41.6484 30.5859ZM38.6953 10.6406L43.6172 30.5859L43.5703 36H38.625L30.3516 10.6406H38.6953ZM69.2578 36.4688C67.1953 36.4688 65.3516 36.1484 63.7266 35.5078C62.1016 34.8516 60.7266 33.9531 59.6016 32.8125C58.4922 31.6719 57.6406 30.3594 57.0469 28.875C56.4688 27.3906 56.1797 25.8203 56.1797 24.1641V23.2734C56.1797 21.4141 56.4375 19.6953 56.9531 18.1172C57.4688 16.5234 58.2344 15.1328 59.25 13.9453C60.2656 12.7578 61.5391 11.8359 63.0703 11.1797C64.6016 10.5078 66.3828 10.1719 68.4141 10.1719C70.2109 10.1719 71.8203 10.4609 73.2422 11.0391C74.6641 11.6172 75.8672 12.4453 76.8516 13.5234C77.8516 14.6016 78.6094 15.9062 79.125 17.4375C79.6562 18.9688 79.9219 20.6875 79.9219 22.5938V25.8047H59.2031V20.8594H72.2109V20.25C72.2266 19.4062 72.0781 18.6875 71.7656 18.0938C71.4688 17.5 71.0312 17.0469 70.4531 16.7344C69.875 16.4219 69.1719 16.2656 68.3438 16.2656C67.4844 16.2656 66.7734 16.4531 66.2109 16.8281C65.6641 17.2031 65.2344 17.7188 64.9219 18.375C64.625 19.0156 64.4141 19.7578 64.2891 20.6016C64.1641 21.4453 64.1016 22.3359 64.1016 23.2734V24.1641C64.1016 25.1016 64.2266 25.9531 64.4766 26.7188C64.7422 27.4844 65.1172 28.1406 65.6016 28.6875C66.1016 29.2188 66.6953 29.6328 67.3828 29.9297C68.0859 30.2266 68.8828 30.375 69.7734 30.375C70.8516 30.375 71.9141 30.1719 72.9609 29.7656C74.0078 29.3594 74.9062 28.6875 75.6562 27.75L79.2422 32.0156C78.7266 32.75 77.9922 33.4609 77.0391 34.1484C76.1016 34.8359 74.9766 35.3984 73.6641 35.8359C72.3516 36.2578 70.8828 36.4688 69.2578 36.4688ZM91.4766 0V36H83.5547V0H91.4766ZM104.695 10.6406V36H96.7734V10.6406H104.695ZM96.3047 4.10156C96.3047 2.97656 96.7109 2.05469 97.5234 1.33594C98.3359 0.617187 99.3906 0.257812 100.688 0.257812C101.984 0.257812 103.039 0.617187 103.852 1.33594C104.664 2.05469 105.07 2.97656 105.07 4.10156C105.07 5.22656 104.664 6.14844 103.852 6.86719C103.039 7.58594 101.984 7.94531 100.688 7.94531C99.3906 7.94531 98.3359 7.58594 97.5234 6.86719C96.7109 6.14844 96.3047 5.22656 96.3047 4.10156ZM122.742 29.625V19.1719C122.742 18.4531 122.641 17.8359 122.438 17.3203C122.234 16.8047 121.914 16.4062 121.477 16.125C121.039 15.8281 120.453 15.6797 119.719 15.6797C119.125 15.6797 118.617 15.7812 118.195 15.9844C117.773 16.1875 117.453 16.4922 117.234 16.8984C117.016 17.3047 116.906 17.8203 116.906 18.4453H109.008C109.008 17.2734 109.266 16.1875 109.781 15.1875C110.312 14.1719 111.062 13.2891 112.031 12.5391C113.016 11.7891 114.188 11.2109 115.547 10.8047C116.922 10.3828 118.453 10.1719 120.141 10.1719C122.156 10.1719 123.953 10.5078 125.531 11.1797C127.125 11.8516 128.383 12.8594 129.305 14.2031C130.227 15.5312 130.688 17.2031 130.688 19.2188V29.6016C130.688 31.2578 130.781 32.5156 130.969 33.375C131.156 34.2188 131.422 34.9609 131.766 35.6016V36H123.844C123.469 35.2188 123.188 34.2656 123 33.1406C122.828 32 122.742 30.8281 122.742 29.625ZM123.703 20.5078L123.75 24.7266H120.258C119.523 24.7266 118.898 24.8281 118.383 25.0312C117.883 25.2344 117.477 25.5156 117.164 25.875C116.867 26.2188 116.648 26.6094 116.508 27.0469C116.383 27.4844 116.32 27.9453 116.32 28.4297C116.32 28.8984 116.43 29.3203 116.648 29.6953C116.883 30.0547 117.195 30.3359 117.586 30.5391C117.977 30.7422 118.414 30.8438 118.898 30.8438C119.773 30.8438 120.516 30.6797 121.125 30.3516C121.75 30.0078 122.227 29.5938 122.555 29.1094C122.883 28.625 123.047 28.1719 123.047 27.75L124.781 30.9844C124.469 31.6094 124.109 32.2422 123.703 32.8828C123.312 33.5234 122.82 34.1172 122.227 34.6641C121.648 35.1953 120.938 35.6328 120.094 35.9766C119.25 36.3047 118.227 36.4688 117.023 36.4688C115.461 36.4688 114.023 36.1484 112.711 35.5078C111.414 34.8672 110.375 33.9766 109.594 32.8359C108.812 31.6797 108.422 30.3516 108.422 28.8516C108.422 27.5391 108.656 26.3672 109.125 25.3359C109.609 24.3047 110.336 23.4297 111.305 22.7109C112.273 21.9922 113.508 21.4453 115.008 21.0703C116.508 20.6953 118.273 20.5078 120.305 20.5078H123.703Z" fill="#1D1B19"/>
</svg>
